<?xml version="1.0" standalone="no"?>
<!DOCTYPE svg PUBLIC "-//W3C//DTD SVG 20010904//EN"
 "http://www.w3.org/TR/2001/REC-SVG-20010904/DTD/svg10.dtd">
<svg version="1.0" xmlns="http://www.w3.org/2000/svg"
 width="700.000000pt" height="700.000000pt" viewBox="0 0 700.000000 700.000000"
 preserveAspectRatio="xMidYMid meet">
<metadata>
Created by potrace 1.14, written by Peter Selinger 2001-2017
</metadata>
<g transform="translate(0.000000,700.000000) scale(0.100000,-0.100000)"
fill="#000000" stroke="none">
<path d="M1718 6995 c-2 -1 -32 -6 -68 -9 -89 -9 -242 -42 -332 -70 -637 -203
-1155 -773 -1277 -1407 -11 -57 -24 -120 -28 -139 -4 -19 -9 -1235 -10 -2702
l-3 -2668 275 0 275 0 1 2598 c0 1428 2 2613 4 2632 23 238 97 450 219 625
212 304 507 501 856 572 117 23 364 25 490 3 118 -21 266 -68 355 -113 228
-114 449 -323 576 -542 35 -60 107 -219 114 -252 2 -10 13 -56 24 -103 32
-135 34 -192 35 -780 l1 -555 275 -3 275 -2 0 557 c1 570 4 646 30 768 83 389
359 736 729 917 84 41 238 91 316 104 25 4 56 9 70 11 55 10 299 11 358 2 235
-34 353 -75 527 -182 264 -162 476 -422 572 -702 23 -68 42 -139 48 -180 12
-80 18 -123 20 -145 2 -14 3 -638 4 -1387 l1 -1363 275 0 276 0 -4 1423 c-2
782 -6 1438 -10 1457 -3 19 -9 53 -12 75 -11 71 -63 268 -89 337 -158 419
-501 805 -906 1019 -161 86 -361 154 -526 179 -43 7 -90 15 -104 17 -51 9
-387 10 -455 2 -97 -12 -149 -20 -155 -24 -3 -2 -21 -6 -40 -9 -175 -27 -453
-147 -635 -274 -196 -135 -407 -345 -522 -518 -20 -30 -39 -54 -42 -54 -3 0
-35 41 -70 89 -130 183 -346 387 -544 516 -150 97 -407 207 -538 230 -18 3
-35 8 -39 10 -4 3 -22 7 -41 9 -19 3 -63 10 -99 17 -57 9 -443 22 -452 14z"/>
<path d="M3231 2530 c-4 -3 -7 -573 -7 -1268 l1 -1262 275 2 275 3 0 1258 c0
693 -2 1262 -5 1266 -6 8 -528 9 -539 1z"/>
</g>
</svg>
