<?xml version="1.0" encoding="UTF-8"?>
<svg width="254.66" height="46.355" version="1.1" viewBox="0 0 254.66 46.355" xml:space="preserve" xmlns="http://www.w3.org/2000/svg" xmlns:cc="http://creativecommons.org/ns#" xmlns:dc="http://purl.org/dc/elements/1.1/" xmlns:rdf="http://www.w3.org/1999/02/22-rdf-syntax-ns#"><metadata><rdf:RDF><cc:Work rdf:about=""><dc:format>image/svg+xml</dc:format><dc:type rdf:resource="http://purl.org/dc/dcmitype/StillImage"/><dc:title/></cc:Work></rdf:RDF></metadata><defs><clipPath id="clipPath28"><path d="m0 425.2h425.2v-425.2h-425.2z"/></clipPath></defs><g transform="matrix(1.3333 0 0 -1.3333 -156.13 261.08)"><path d="m0 0h425.2v425.2h-425.2z" fill="#fff"/><g clip-path="url(#clipPath28)"><g transform="translate(308.1 161.28)"><path d="m0 0v27.592h-2.602l-13.829-18.368-13.921 18.368h-2.365v-27.592h2.129v24.235l14.098-18.598 14.125 18.749v-24.386zm-75.479 13.796c0 6.438 5.229 11.905 11.667 11.905 6.439 0 11.668-5.467 11.668-11.905s-5.229-11.904-11.668-11.904c-6.438 0-11.667 5.466-11.667 11.904m-2.365 0c0-7.745 6.287-14.032 14.032-14.032 7.746 0 14.033 6.287 14.033 14.032 0 7.746-6.287 14.033-14.033 14.033-7.745 0-14.032-6.287-14.032-14.033m-40.989 0c0 6.438 5.229 11.905 11.668 11.905 6.438 0 11.667-5.467 11.667-11.905s-5.229-11.904-11.667-11.904c-6.439 0-11.668 5.466-11.668 11.904m-2.365 0c0-7.745 6.287-14.032 14.033-14.032 7.745 0 14.032 6.287 14.032 14.032 0 7.746-6.287 14.033-14.032 14.033-7.746 0-14.033-6.287-14.033-14.033m-32.514-13.796h19.394v2.128h-17.029v25.464h-2.365v-18.125zm-37.284 27.592v-27.592h20.34v2.128h-17.975v10.643h15.61v2.129h-15.61v10.564h17.975v2.128zm7.884 2.208h1.892l4.415 4.73h-2.759z" fill="#222629" fill-rule="evenodd"/></g></g></g></svg>
